<?xml version="1.0" standalone="no"?>
<!DOCTYPE svg PUBLIC "-//W3C//DTD SVG 20010904//EN"
 "http://www.w3.org/TR/2001/REC-SVG-20010904/DTD/svg10.dtd">
<svg version="1.0" xmlns="http://www.w3.org/2000/svg"
 width="1024.000000pt" height="1024.000000pt" viewBox="0 0 1024.000000 1024.000000"
 preserveAspectRatio="xMidYMid meet">

<g transform="translate(0.000000,1024.000000) scale(0.100000,-0.100000)"
fill="#000000" stroke="none">
<path d="M3485 9020 c-124 -5 -133 -7 -193 -39 -74 -40 -115 -84 -151 -161
l-26 -55 0 -865 0 -865 343 -3 342 -2 0 995 0 995 -67 1 c-38 1 -79 2 -93 3
-14 1 -83 -1 -155 -4z"/>
<path d="M4183 9023 l-23 -4 0 -1080 c0 -774 -3 -1093 -11 -1125 -14 -56 -61
-108 -114 -125 -30 -10 -151 -14 -480 -16 l-440 -2 -6 -163 c-6 -131 -11 -172
-27 -208 -33 -74 -77 -125 -141 -164 -52 -32 -74 -39 -149 -46 -49 -5 -408 -9
-798 -8 -390 1 -714 -1 -719 -4 -7 -4 -10 -330 -10 -960 l1 -953 1374 -6 c756
-3 1387 -9 1403 -13 43 -13 93 -70 106 -120 8 -32 11 -437 11 -1430 l0 -1386
960 0 959 0 3 873 c3 870 3 872 25 919 27 59 94 132 151 165 71 42 139 53 340
53 l182 0 0 396 c0 436 -1 431 63 491 18 17 52 35 79 42 33 8 336 11 1047 11
l1001 0 0 813 c0 887 1 868 -57 955 -41 60 -109 109 -183 133 -63 20 -92 20
-1220 26 -648 3 -1171 9 -1192 14 -98 25 -204 144 -226 254 -7 32 -12 87 -12
123 l0 64 -36 -7 c-20 -3 -44 -10 -53 -15 -9 -5 -47 -21 -86 -36 -88 -33 -280
-126 -329 -159 -20 -14 -39 -25 -41 -25 -11 0 -251 -165 -275 -190 -3 -3 -34
-30 -70 -60 -242 -204 -469 -479 -642 -778 -48 -83 -155 -302 -182 -372 -59
-152 -73 -177 -118 -210 -39 -29 -48 -31 -104 -28 -75 5 -121 36 -154 103 -25
52 -24 101 4 156 9 18 16 37 16 42 0 20 134 313 191 419 67 123 179 302 230
371 19 24 41 55 49 67 8 12 23 32 34 43 10 12 43 54 74 92 82 104 335 350 453
442 89 68 257 183 340 232 98 58 321 162 451 210 32 12 81 31 110 41 29 11 72
24 96 30 l43 11 -3 912 c-4 1040 2 971 -90 1072 -83 91 -124 106 -308 116
-157 8 -1456 10 -1497 2z"/>
<path d="M467 6065 c-106 -29 -211 -131 -240 -232 -15 -54 -22 -2105 -7 -2266
8 -90 16 -129 34 -165 33 -64 90 -120 156 -151 l55 -26 1175 -5 1175 -5 58
-22 c97 -37 164 -100 210 -200 l22 -48 5 -1205 c5 -1146 6 -1207 24 -1254 24
-61 114 -155 181 -187 l50 -24 1225 0 1225 0 56 26 c109 52 176 137 199 254 6
33 10 114 8 180 l-3 120 -1082 5 c-1073 5 -1082 5 -1109 26 -42 31 -65 67 -75
115 -4 24 -8 664 -9 1422 l0 1377 -1362 0 c-924 0 -1375 4 -1401 11 -55 15
-102 66 -121 129 -14 48 -16 173 -16 1097 l0 1043 -192 -1 c-127 0 -210 -5
-241 -14z"/>
<path d="M7147 3793 c-4 -3 -7 -134 -7 -290 l0 -284 788 3 787 3 55 26 c77 36
121 77 161 151 l34 63 3 168 4 167 -909 0 c-501 0 -913 -3 -916 -7z"/>
</g>
</svg>
